<?xml version="1.0" standalone="no"?>
<!DOCTYPE svg PUBLIC "-//W3C//DTD SVG 20010904//EN"
 "http://www.w3.org/TR/2001/REC-SVG-20010904/DTD/svg10.dtd">
<svg version="1.0" xmlns="http://www.w3.org/2000/svg"
 width="512.000000pt" height="512.000000pt" viewBox="0 0 512.000000 512.000000"
 preserveAspectRatio="xMidYMid meet">
<metadata>
Created by potrace 1.14, written by Peter Selinger 2001-2017
</metadata>
<g transform="translate(0.000000,512.000000) scale(0.100000,-0.100000)"
fill="#000000" stroke="none">
<path d="M2347 5004 c-1 -1 -49 -5 -106 -9 -58 -3 -107 -8 -110 -9 -3 -2 -33
-7 -66 -11 -33 -3 -114 -20 -180 -36 -66 -17 -127 -32 -135 -33 -117 -27 -410
-152 -524 -223 -48 -30 -49 -31 -69 -12 -27 25 -68 24 -95 -1 -24 -23 -23 -20
-26 -72 -1 -21 -4 -39 -7 -41 -2 -1 -33 -24 -68 -51 -47 -36 -73 -50 -100 -51
l-37 -2 1 76 c3 118 -17 160 -75 160 -57 0 -76 -39 -75 -151 l0 -78 -45 -1
c-25 -1 -69 -1 -99 -1 -72 1 -114 -17 -133 -59 -14 -28 -16 -75 -16 -274 l0
-240 -43 -70 c-65 -108 -173 -338 -213 -455 -40 -119 -77 -263 -102 -395 -24
-126 -30 -628 -8 -765 54 -348 158 -630 347 -943 249 -412 658 -760 1127 -960
90 -38 238 -90 290 -102 8 -2 53 -13 100 -24 105 -24 124 -28 225 -41 44 -6
98 -13 120 -17 46 -6 385 -6 430 1 17 3 58 8 92 11 34 4 68 8 75 9 7 2 31 6
53 10 22 4 78 17 125 28 47 11 93 21 102 23 90 18 358 127 496 201 46 25 87
42 92 39 5 -3 42 -14 82 -24 250 -64 521 -35 744 77 150 76 324 227 409 357
68 103 132 245 149 331 3 10 10 42 16 69 18 76 21 287 4 378 -33 181 -103 339
-219 491 -14 18 -23 35 -21 37 2 2 7 24 10 49 32 228 29 552 -5 745 -6 33 -13
71 -15 85 -13 73 -68 269 -95 342 l-31 83 -2 465 c-2 499 -1 493 -54 521 -14
8 -64 13 -130 14 l-107 0 -1 75 c-2 115 -3 118 -26 140 -25 23 -65 26 -91 6
-25 -19 -34 -59 -32 -146 l1 -75 -105 0 -106 0 -1 85 c-1 47 -2 90 -3 97 -2
22 -44 53 -70 53 -54 -1 -78 -41 -76 -126 l1 -51 -116 78 c-231 155 -465 260
-740 333 -52 14 -113 28 -135 32 -22 3 -43 8 -46 10 -4 2 -33 6 -65 10 -32 3
-60 7 -64 9 -14 9 -395 27 -403 19z"/>
</g>
</svg>
